<?xml version="1.0" encoding="UTF-8" standalone="no"?>
<!-- Created with Inkscape (http://www.inkscape.org/) -->

<svg
   width="600mm"
   height="80mm"
   viewBox="0 0 2125.9845 283.46457"
   id="svg2"
   version="1.1"
   inkscape:version="1.1.1 (3bf5ae0d25, 2021-09-20, custom)"
   sodipodi:docname="logo-text-path.svg"
   inkscape:export-filename="/home/danysk/Dropbox/Sites/alchemist/assets/img//logo-text.png"
   inkscape:export-xdpi="25.400002"
   inkscape:export-ydpi="25.400002"
   xmlns:inkscape="http://www.inkscape.org/namespaces/inkscape"
   xmlns:sodipodi="http://sodipodi.sourceforge.net/DTD/sodipodi-0.dtd"
   xmlns="http://www.w3.org/2000/svg"
   xmlns:svg="http://www.w3.org/2000/svg"
   xmlns:rdf="http://www.w3.org/1999/02/22-rdf-syntax-ns#"
   xmlns:cc="http://creativecommons.org/ns#"
   xmlns:dc="http://purl.org/dc/elements/1.1/">
  <defs
     id="defs4">
    <rect
       x="2169.8304"
       y="172.13129"
       width="0"
       height="51.42358"
       id="rect51700" />
    <rect
       x="1109.7017"
       y="579.18084"
       width="1050.388"
       height="445.07204"
       id="rect35830" />
    <rect
       x="2228.1075"
       y="450.57546"
       width="44.419466"
       height="146.54706"
       id="rect26818" />
    <rect
       x="2231.5194"
       y="445.66668"
       width="135.80028"
       height="70.291174"
       id="rect15576" />
  </defs>
  <sodipodi:namedview
     id="base"
     pagecolor="#ffffff"
     bordercolor="#666666"
     borderopacity="1.0"
     inkscape:pageopacity="0.0"
     inkscape:pageshadow="2"
     inkscape:zoom="0.68299188"
     inkscape:cx="1057.8457"
     inkscape:cy="284.77645"
     inkscape:document-units="px"
     inkscape:current-layer="layer1"
     showgrid="false"
     units="mm"
     inkscape:window-width="3840"
     inkscape:window-height="2084"
     inkscape:window-x="1200"
     inkscape:window-y="0"
     inkscape:window-maximized="1"
     inkscape:pagecheckerboard="0" />
  <metadata
     id="metadata7">
    <rdf:RDF>
      <cc:Work
         rdf:about="">
        <dc:format>image/svg+xml</dc:format>
        <dc:type
           rdf:resource="http://purl.org/dc/dcmitype/StillImage" />
      </cc:Work>
    </rdf:RDF>
  </metadata>
  <g
     inkscape:label="Layer 1"
     inkscape:groupmode="layer"
     id="layer1"
     transform="translate(0,-768.89773)">
    <g
       transform="matrix(0.93750004,0,0,0.93750004,0,768.89773)"
       id="text51698"
       style="font-size:40px;line-height:1.25;font-family:Futura;-inkscape-font-specification:Futura;white-space:pre;shape-inside:url(#rect51700)" />
    <g
       aria-label="Alchemist"
       id="text4136"
       style="line-height:0%;letter-spacing:0px;word-spacing:0px;fill:#ffffff;stroke:#000000;stroke-width:3.54331">
      <path
         d="M 49.589281,1026.8265 H 187.58928 l -79.5,-218.62496 -83.624999,229.87496 h -12 l 95.624999,-262.87496 95.625,262.87496 H 49.589281 Z"
         style="font-weight:500;font-size:375px;line-height:1.25;font-family:Megrim;-inkscape-font-specification:'Megrim Medium'"
         id="path88231" />
      <path
         d="m 371.3391,1026.8265 v 11.25 h -125.25 V 820.57654 h 11.25 v 206.24996 z"
         style="font-weight:500;font-size:375px;line-height:1.25;font-family:Megrim;-inkscape-font-specification:'Megrim Medium'"
         id="path88233" />
      <path
         d="m 425.33885,1015.2015 q -20.25,-26.62496 -20.25,-85.87496 0,-59.25 20.25,-85.875 20.25,-26.625 67.125,-26.625 46.875,0 67.5,25.875 l -8.25,7.5 q -16.5,-22.125 -59.25,-22.125 -18.75,0 -31.5,4.125 -12.75,3.75 -23.625,14.625 -10.5,10.5 -15.75,31.125 -5.25,20.25 -5.25,51.375 0,31.125 5.25,51.75 5.25,20.24996 15.75,31.12496 10.875,10.5 23.625,14.625 12.75,3.75 31.5,3.75 42.75,0 59.25,-22.125 l 8.25,7.5 q -20.625,25.875 -67.5,25.875 -46.875,0 -67.125,-26.625 z"
         style="font-weight:500;font-size:375px;line-height:1.25;font-family:Megrim;-inkscape-font-specification:'Megrim Medium'"
         id="path88235" />
      <path
         d="m 750.8391,1038.0765 h -11.25 V 929.32654 h -112.5 v 108.74996 h -11.25 V 820.57654 h 11.25 v 97.5 h 112.5 v -97.5 h 11.25 z"
         style="font-weight:500;font-size:375px;line-height:1.25;font-family:Megrim;-inkscape-font-specification:'Megrim Medium'"
         id="path88237" />
      <path
         d="m 967.58879,1015.9515 q -20.625,25.875 -67.5,25.875 -46.875,0 -67.125,-26.625 -20.25,-26.62496 -20.25,-85.87496 0,-59.25 20.25,-85.875 20.25,-26.625 67.125,-26.625 54.375,0 73.875,35.625 l -91.875,76.875 h -17.625 l 94.875,-79.125 q -16.5,-22.125 -59.25,-22.125 -18.75,0 -31.5,4.125 -12.75,3.75 -23.625,14.625 -10.5,10.5 -15.75,31.125 -5.25,20.25 -5.25,51.375 0,31.125 5.25,51.75 5.25,20.24996 15.75,31.12496 10.875,10.5 23.625,14.625 12.75,3.75 31.5,3.75 42.75,0 59.25,-22.125 z"
         style="font-weight:500;font-size:375px;line-height:1.25;font-family:Megrim;-inkscape-font-specification:'Megrim Medium'"
         id="path88239" />
      <path
         d="m 1062.8389,1026.8265 h 144.75 V 836.32654 l -84.375,84.375 -84.375,-84.375 v 201.74996 l -11.25,-0.375 V 820.57654 h 11.25 l 84.375,84.375 84.375,-84.375 h 11.25 v 217.49996 l -156,-0.375 z"
         style="font-weight:500;font-size:375px;line-height:1.25;font-family:Megrim;-inkscape-font-specification:'Megrim Medium'"
         id="path88241" />
      <path
         d="m 1290.0893,820.57654 h 11.25 v 217.49996 h -11.25 z"
         style="font-weight:500;font-size:375px;line-height:1.25;font-family:Megrim;-inkscape-font-specification:'Megrim Medium'"
         id="path88243" />
      <path
         d="m 1429.9639,816.07654 q 46.5,0 66,20.625 l -7.5,8.25 q -18,-17.625 -57,-17.625 -58.5,0 -58.5,46.5 0,18 14.25,28.875 14.25,10.5 34.5,16.125 20.625,5.625 40.875,12 20.625,6 34.875,19.875 14.25,13.5 14.25,35.625 0,25.87496 -21.375,41.24996 -21.375,15.375 -61.875,15.375 -19.875,0 -39.375,-5.25 -19.125,-5.25 -28.5,-15.375 l 7.5,-8.25 q 19.125,17.625 58.875,17.625 36.375,0 54.75,-13.5 18.75,-13.5 18.75,-31.49996 0,-18.75 -14.25,-30.375 -14.25,-11.625 -34.875,-17.25 -20.25,-6 -40.875,-12 -20.25,-6.375 -34.5,-19.5 -14.25,-13.125 -14.25,-34.5 0,-28.875 19.125,-42.75 19.5,-14.25 49.125,-14.25 z"
         style="font-weight:500;font-size:375px;line-height:1.25;font-family:Megrim;-inkscape-font-specification:'Megrim Medium'"
         id="path88245" />
      <path
         d="m 1707.089,820.57654 v 11.25 h -78.75 v 206.24996 h -11.25 V 831.82654 h -78.75 v -11.25 z"
         style="font-weight:500;font-size:375px;line-height:1.25;font-family:Megrim;-inkscape-font-specification:'Megrim Medium'"
         id="path88247" />
    </g>
    <path
       style="fill:none;fill-rule:evenodd;stroke:#000000;stroke-width:5.39273548;stroke-linecap:butt;stroke-linejoin:miter;stroke-miterlimit:4;stroke-dasharray:none;stroke-opacity:1"
       d="m 151.52286,793.76322 1973.02224,0"
       id="path4183"
       inkscape:connector-curvature="0" />
    <g
       transform="matrix(0.93750004,0,0,0.93750004,0,768.89773)"
       id="text15574"
       style="font-size:40px;line-height:1.25;font-family:Futura;-inkscape-font-specification:Futura;white-space:pre;shape-inside:url(#rect15576)" />
    <g
       transform="matrix(0.93750004,0,0,0.93750004,0,768.89773)"
       id="text26816"
       style="font-size:40px;line-height:1.25;font-family:Futura;-inkscape-font-specification:Futura;white-space:pre;shape-inside:url(#rect26818)" />
    <g
       transform="matrix(0.93750004,0,0,0.93750004,0,768.89773)"
       id="text35828"
       style="font-size:40px;line-height:1.25;font-family:Futura;-inkscape-font-specification:Futura;white-space:pre;shape-inside:url(#rect35830)" />
    <g
       aria-label="simulation tools for complex software ecosystems"
       transform="translate(425.88748,-560.54012)"
       id="text36210"
       style="font-size:47.5px;line-height:1;font-family:Futura;-inkscape-font-specification:Futura;white-space:pre;inline-size:394.068;stroke-width:0.9375">
      <path
         d="m 1333.8418,1390.1139 q 2.5977,0 4.4299,0.093 1.8323,0.07 3.0616,0.2783 1.2524,0.1855 1.9714,0.487 0.719,0.3016 1.0901,0.9046 0.3711,0.5798 0.4638,1.1828 0.116,0.5799 0.116,1.3453 0,0.8349 -0.116,1.5307 -0.093,0.6726 -0.487,1.2293 -0.3943,0.5566 -1.1597,0.9509 -0.7654,0.3943 -2.0874,0.6726 -1.322,0.2783 -3.2934,0.4175 -1.9483,0.116 -4.7315,0.116 -3.0615,0 -5.0793,-0.1624 -1.9947,-0.1855 -3.1775,-0.6726 -1.1829,-0.4871 -1.6699,-1.3452 -0.4639,-0.8814 -0.4639,-2.273 h -4.4531 q 0,2.1106 0.7421,3.5718 0.7654,1.4612 2.5049,2.3889 1.7395,0.9046 4.5691,1.322 2.8528,0.4175 7.0276,0.4175 3.3399,0 5.8447,-0.2087 2.5281,-0.1856 4.3372,-0.5798 1.8091,-0.4175 2.9919,-1.0669 1.2061,-0.6727 1.9019,-1.5772 0.6958,-0.9277 0.9741,-2.1106 0.2783,-1.206 0.2783,-2.7136 0,-1.5076 -0.2783,-2.6441 -0.2783,-1.1596 -0.9741,-1.9946 -0.6726,-0.8581 -1.8091,-1.5771 -1.1365,-0.719 -2.876,-1.0669 -1.7395,-0.3479 -4.1284,-0.4871 -2.3657,-0.1391 -5.52,-0.1391 -2.5977,0 -4.4299,0 -1.8323,-0.023 -3.0848,-0.1392 -1.2292,-0.1392 -1.9482,-0.3943 -0.719,-0.2551 -1.0901,-0.7422 -0.3711,-0.487 -0.487,-1.2292 -0.093,-0.7654 -0.093,-1.554 0,-1.3452 0.603,-2.1106 0.603,-0.7654 1.9946,-1.1365 1.3916,-0.371 3.6646,-0.4638 2.2729,-0.093 5.6128,-0.093 3.0615,0 5.0561,0.1856 2.0179,0.1623 3.2007,0.6262 1.1829,0.4406 1.6467,1.2292 0.4871,0.7886 0.4871,2.041 h 4.4531 q 0,-2.0178 -0.6726,-3.479 -0.6726,-1.4611 -2.3657,-2.4121 -1.6699,-0.9741 -4.5459,-1.438 -2.8528,-0.4638 -7.2595,-0.4638 -4.4531,0 -7.5611,0.3943 -3.1079,0.3942 -5.0561,1.2988 -1.9482,0.8813 -2.8296,2.3193 -0.8813,1.4148 -0.8813,3.5022 0,1.5308 0.2783,2.8528 0.2783,1.2988 0.9509,2.2034 0.6726,0.8813 1.8091,1.4148 1.1597,0.5334 2.876,0.8349 1.7395,0.2783 4.1284,0.3711 2.3889,0.093 5.5432,0.093 z"
         style="font-family:Michroma;-inkscape-font-specification:Michroma"
         id="path88141" />
      <path
         d="m 1356.8496,1375.5717 h 4.4531 v 26.7187 h -4.4531 z m 4.4531,-4.4532 h -4.4531 v -4.4531 h 4.4531 z"
         style="font-family:Michroma;-inkscape-font-specification:Michroma"
         id="path88143" />
      <path
         d="m 1396.9277,1402.2904 h -4.4531 v -15.0757 q 0,-2.4121 -0.3247,-4.0588 -0.3015,-1.6699 -1.2756,-2.6904 -0.951,-1.0206 -2.7137,-1.4612 -1.7395,-0.4639 -4.5922,-0.4639 -3.1311,0 -5.149,0.5335 -2.0178,0.5102 -3.1775,1.4611 -1.1596,0.9278 -1.6235,2.2498 -0.4407,1.322 -0.4407,2.9455 v 16.5601 h -4.4531 v -26.7187 h 4.4531 v 4.2211 q 0.023,-0.069 0.2088,-0.4638 0.1855,-0.3943 0.6494,-0.9278 0.487,-0.5566 1.2988,-1.1828 0.835,-0.6262 2.1338,-1.1597 1.322,-0.5334 3.1775,-0.8813 1.8555,-0.3479 4.4067,-0.3479 2.5049,0 4.3372,0.3247 1.8555,0.3015 3.1543,0.9277 1.322,0.603 2.1338,1.5308 0.8349,0.9045 1.322,2.0874 0.3943,-0.6262 1.2292,-1.4612 0.835,-0.835 2.3194,-1.6004 1.5076,-0.7653 3.7573,-1.2756 2.2498,-0.5334 5.4968,-0.5334 2.6673,0 4.5691,0.3711 1.9251,0.3479 3.2471,1.0669 1.322,0.6958 2.1106,1.7395 0.8118,1.0437 1.2292,2.4353 0.4407,1.3684 0.5799,3.0847 0.1391,1.6931 0.1391,3.6877 v 15.0757 h -4.4531 v -15.0757 q 0,-2.4121 -0.3247,-4.0588 -0.3015,-1.6699 -1.2756,-2.6904 -0.951,-1.0206 -2.7137,-1.4612 -1.7395,-0.4639 -4.5922,-0.4639 -3.1311,0 -5.149,0.5335 -2.0178,0.5102 -3.1775,1.4611 -1.1596,0.9278 -1.6235,2.2498 -0.4407,1.322 -0.4407,2.9455 z"
         style="font-family:Michroma;-inkscape-font-specification:Michroma"
         id="path88145" />
      <path
         d="m 1431.0916,1375.5717 v 14.8437 q 0,2.4817 0.371,4.198 0.3711,1.6931 1.4844,2.7368 1.1133,1.0437 3.1543,1.5076 2.041,0.4639 5.3809,0.4639 3.6181,0 5.9143,-0.5335 2.3193,-0.5334 3.6413,-1.5076 1.3221,-0.9741 1.8091,-2.3425 0.5103,-1.3684 0.5103,-3.0383 v -16.3281 h 4.4531 v 26.7187 h -4.4531 v -4.4531 q -0.3247,0.719 -1.0901,1.6003 -0.7654,0.8582 -2.2962,1.6004 -1.5307,0.7422 -3.966,1.2524 -2.4121,0.5103 -6.0071,0.5103 -2.9919,0 -5.1489,-0.3711 -2.1338,-0.3479 -3.6414,-1.0437 -1.4844,-0.719 -2.3889,-1.7627 -0.9045,-1.0437 -1.3916,-2.4121 -0.4871,-1.3916 -0.6494,-3.0848 -0.1624,-1.6931 -0.1624,-3.7109 l 0.023,-14.8437 z"
         style="font-family:Michroma;-inkscape-font-specification:Michroma"
         id="path88147" />
      <path
         d="m 1465.2322,1366.6654 h 4.4531 v 35.625 h -4.4531 z"
         style="font-family:Michroma;-inkscape-font-specification:Michroma"
         id="path88149" />
      <path
         d="m 1503.71,1398.6259 q -0.07,0.2783 -1.0437,1.3916 -0.6958,0.8349 -1.8555,1.4843 -1.1597,0.6263 -3.1079,0.9742 -1.9251,0.371 -5.0794,0.371 -4.198,0 -7.1667,-0.4406 -2.9688,-0.4175 -4.8474,-1.2989 -1.8787,-0.9045 -2.76,-2.2961 -0.8582,-1.3916 -0.8582,-3.3166 0,-2.0179 0.4639,-3.4095 0.487,-1.4148 1.3916,-2.3657 0.9277,-0.9509 2.2265,-1.4844 1.2989,-0.5334 2.9456,-0.8117 1.6699,-0.2784 3.6414,-0.3479 1.9714,-0.07 4.198,-0.07 3.1774,0 5.3112,0.2783 2.1338,0.2551 3.479,0.6726 1.3684,0.3943 2.0642,0.8582 0.6958,0.4638 0.9974,0.8581 0,-2.5976 -0.232,-4.4299 -0.2087,-1.8323 -0.719,-3.0615 -0.487,-1.2293 -1.2756,-1.9483 -0.7886,-0.7422 -1.9482,-1.1133 -1.1365,-0.3711 -2.6673,-0.4638 -1.5307,-0.116 -3.5022,-0.116 -3.0615,0 -5.0793,0.1624 -2.0178,0.1391 -3.2007,0.5798 -1.1829,0.4407 -1.6699,1.2292 -0.4871,0.7654 -0.4871,2.0179 h -4.4531 q 0,-2.1106 0.7422,-3.5718 0.7654,-1.4612 2.5049,-2.3657 1.7627,-0.9278 4.6154,-1.3453 2.8528,-0.4174 7.0276,-0.4174 4.0821,0 6.9116,0.6726 2.8296,0.6726 4.5691,2.3657 1.7627,1.6931 2.5281,4.5691 0.7886,2.8528 0.7886,7.2363 v 12.6172 h -4.4531 z m -10.3443,0.6958 q 2.9456,0 4.917,-0.2784 1.9946,-0.2783 3.2007,-0.8349 1.2061,-0.5567 1.7163,-1.3916 0.5103,-0.835 0.5103,-1.9483 0,-1.1133 -0.6031,-1.8786 -0.5798,-0.7886 -1.9714,-1.2757 -1.3684,-0.487 -3.6414,-0.6958 -2.2729,-0.2319 -5.6128,-0.2319 -3.3398,0 -5.404,0.116 -2.041,0.1159 -3.1543,0.5334 -1.1133,0.4175 -1.5076,1.2293 -0.3711,0.8117 -0.3711,2.2033 0,1.3916 0.3943,2.273 0.4175,0.8581 1.6699,1.3452 1.2525,0.4871 3.595,0.6726 2.3657,0.1624 6.2622,0.1624 z"
         style="font-family:Michroma;-inkscape-font-specification:Michroma"
         id="path88151" />
      <path
         d="m 1540.0771,1390.4154 q 0,3.4094 -0.5566,5.7056 -0.5566,2.2729 -1.8787,3.6413 -1.2988,1.3684 -3.4326,1.9483 -2.1338,0.5798 -5.2649,0.5798 -3.0383,0 -5.1025,-0.4639 -2.0642,-0.4638 -3.3398,-1.5771 -1.2757,-1.1133 -1.8323,-2.9688 -0.5567,-1.8554 -0.5567,-4.6386 v -13.4058 h -5.4968 v -3.6645 h 5.4968 v -7.306 h 4.4532 v 7.306 h 16.7688 v 3.6645 h -16.7688 v 13.4058 q 0,2.2265 0.3247,3.4326 0.3479,1.206 1.0901,1.7627 0.7421,0.5566 1.9482,0.6494 1.2292,0.093 2.9919,0.093 1.3916,0 2.4817,-0.046 1.1133,-0.046 1.9251,-0.2783 0.8349,-0.2552 1.4148,-0.7422 0.5798,-0.5103 0.9277,-1.4148 0.3711,-0.9046 0.5335,-2.273 0.1623,-1.3916 0.1623,-3.4094 z"
         style="font-family:Michroma;-inkscape-font-specification:Michroma"
         id="path88153" />
      <path
         d="m 1547.499,1375.5717 h 4.4531 v 26.7187 h -4.4531 z m 4.4531,-4.4532 h -4.4531 v -4.4531 h 4.4531 z"
         style="font-family:Michroma;-inkscape-font-specification:Michroma"
         id="path88155" />
      <path
         d="m 1558.6318,1388.7455 q 0,-4.1052 0.8814,-6.7957 0.8813,-2.6904 2.8296,-4.2675 1.9482,-1.5772 5.0561,-2.2034 3.1079,-0.6494 7.5611,-0.6494 4.4531,0 7.561,0.6494 3.1079,0.6262 5.0561,2.2034 1.9483,1.5771 2.8296,4.2675 0.8814,2.6905 0.8814,6.7957 0,4.1052 -0.8814,6.8188 -0.8813,2.7137 -2.8296,4.314 -1.9482,1.6003 -5.0561,2.2729 -3.1079,0.6495 -7.561,0.6495 -4.4532,0 -7.5611,-0.6495 -3.1079,-0.6726 -5.0561,-2.2729 -1.9483,-1.6003 -2.8296,-4.314 -0.8814,-2.7136 -0.8814,-6.8188 z m 4.4532,0 q 0,2.2265 0.1623,3.8733 0.1624,1.6467 0.603,2.8296 0.4639,1.1828 1.2757,1.925 0.8117,0.7422 2.1338,1.1829 1.322,0.4406 3.2006,0.603 1.9019,0.1624 4.4996,0.1624 2.2265,0 3.966,-0.093 1.7627,-0.116 3.0615,-0.4871 1.3221,-0.3711 2.2498,-1.0437 0.9277,-0.6958 1.4844,-1.8786 0.5798,-1.1829 0.8349,-2.8992 0.2784,-1.7395 0.2784,-4.1748 0,-2.3889 -0.2784,-4.0589 -0.2551,-1.6931 -0.8349,-2.8295 -0.5567,-1.1365 -1.4844,-1.7859 -0.9277,-0.6726 -2.2498,-0.9973 -1.2988,-0.3479 -3.0615,-0.4407 -1.7395,-0.093 -3.966,-0.093 -2.2266,0 -3.9893,0.093 -1.7395,0.093 -3.0615,0.4407 -1.2988,0.3247 -2.2266,0.9973 -0.9277,0.6494 -1.5076,1.7859 -0.5566,1.1364 -0.8349,2.8295 -0.2551,1.67 -0.2551,4.0589 z"
         style="font-family:Michroma;-inkscape-font-specification:Michroma"
         id="path88157" />
      <path
         d="m 1623.2021,1402.2904 v -14.8437 q 0,-2.4817 -0.371,-4.1748 -0.3711,-1.7164 -1.4844,-2.7601 -1.1133,-1.0437 -3.1543,-1.5075 -2.041,-0.4639 -5.3809,-0.4639 -3.6181,0 -5.9375,0.5335 -2.2961,0.5334 -3.6181,1.5075 -1.3221,0.9741 -1.8323,2.3426 -0.4871,1.3684 -0.4871,3.0383 v 16.3281 h -4.4531 v -26.7187 h 4.4531 v 4.4531 q 0.4871,-1.1365 1.3916,-1.9483 0.9046,-0.8349 2.041,-1.4148 1.1365,-0.5798 2.4585,-0.9277 1.3221,-0.3711 2.6441,-0.5566 1.322,-0.2088 2.5512,-0.2784 1.2525,-0.069 2.273,-0.069 2.9687,0 5.1025,0.3711 2.157,0.3711 3.6414,1.09 1.5076,0.719 2.4121,1.7859 0.9045,1.0669 1.3916,2.4817 0.5103,1.3916 0.6726,3.1311 0.1624,1.7163 0.1624,3.7574 l -0.023,14.8437 z"
         style="font-family:Michroma;-inkscape-font-specification:Michroma"
         id="path88159" />
      <path
         d="m 1344.2324,1440.4529 q 0,3.4094 -0.5566,5.7056 -0.5567,2.2729 -1.8787,3.6413 -1.2988,1.3684 -3.4326,1.9483 -2.1338,0.5798 -5.2649,0.5798 -3.0383,0 -5.1025,-0.4639 -2.0642,-0.4638 -3.3399,-1.5771 -1.2756,-1.1133 -1.8322,-2.9688 -0.5567,-1.8554 -0.5567,-4.6386 v -13.4058 h -5.4968 v -3.6645 h 5.4968 v -7.3059 h 4.4531 v 7.3059 h 16.7688 v 3.6645 h -16.7688 v 13.4058 q 0,2.2265 0.3247,3.4326 0.3479,1.206 1.0901,1.7627 0.7422,0.5566 1.9483,0.6494 1.2292,0.093 2.9919,0.093 1.3916,0 2.4817,-0.046 1.1133,-0.046 1.9251,-0.2783 0.8349,-0.2552 1.4147,-0.7422 0.5799,-0.5103 0.9278,-1.4148 0.3711,-0.9046 0.5334,-2.273 0.1624,-1.3916 0.1624,-3.4094 z"
         style="font-family:Michroma;-inkscape-font-specification:Michroma"
         id="path88161" />
      <path
         d="m 1347.9434,1438.783 q 0,-4.1052 0.8813,-6.7957 0.8814,-2.6904 2.8296,-4.2675 1.9482,-1.5772 5.0561,-2.2034 3.108,-0.6494 7.5611,-0.6494 4.4531,0 7.561,0.6494 3.1079,0.6262 5.0562,2.2034 1.9482,1.5771 2.8296,4.2675 0.8813,2.6905 0.8813,6.7957 0,4.1052 -0.8813,6.8188 -0.8814,2.7137 -2.8296,4.314 -1.9483,1.6003 -5.0562,2.273 -3.1079,0.6494 -7.561,0.6494 -4.4531,0 -7.5611,-0.6494 -3.1079,-0.6727 -5.0561,-2.273 -1.9482,-1.6003 -2.8296,-4.314 -0.8813,-2.7136 -0.8813,-6.8188 z m 4.4531,0 q 0,2.2266 0.1623,3.8733 0.1624,1.6467 0.6031,2.8296 0.4638,1.1828 1.2756,1.925 0.8118,0.7422 2.1338,1.1829 1.322,0.4407 3.2007,0.603 1.9018,0.1624 4.4995,0.1624 2.2265,0 3.966,-0.093 1.7627,-0.116 3.0616,-0.4871 1.322,-0.3711 2.2497,-1.0437 0.9278,-0.6958 1.4844,-1.8786 0.5798,-1.1829 0.835,-2.8992 0.2783,-1.7395 0.2783,-4.1748 0,-2.3889 -0.2783,-4.0588 -0.2552,-1.6932 -0.835,-2.8296 -0.5566,-1.1365 -1.4844,-1.7859 -0.9277,-0.6726 -2.2497,-0.9973 -1.2989,-0.3479 -3.0616,-0.4407 -1.7395,-0.093 -3.966,-0.093 -2.2266,0 -3.9893,0.093 -1.7395,0.093 -3.0615,0.4407 -1.2988,0.3247 -2.2266,0.9973 -0.9277,0.6494 -1.5075,1.7859 -0.5567,1.1364 -0.835,2.8296 -0.2551,1.6699 -0.2551,4.0588 z"
         style="font-family:Michroma;-inkscape-font-specification:Michroma"
         id="path88163" />
      <path
         d="m 1385.0527,1438.783 q 0,-4.1052 0.8814,-6.7957 0.8813,-2.6904 2.8296,-4.2675 1.9482,-1.5772 5.0561,-2.2034 3.1079,-0.6494 7.5611,-0.6494 4.4531,0 7.561,0.6494 3.1079,0.6262 5.0561,2.2034 1.9483,1.5771 2.8296,4.2675 0.8814,2.6905 0.8814,6.7957 0,4.1052 -0.8814,6.8188 -0.8813,2.7137 -2.8296,4.314 -1.9482,1.6003 -5.0561,2.273 -3.1079,0.6494 -7.561,0.6494 -4.4532,0 -7.5611,-0.6494 -3.1079,-0.6727 -5.0561,-2.273 -1.9483,-1.6003 -2.8296,-4.314 -0.8814,-2.7136 -0.8814,-6.8188 z m 4.4532,0 q 0,2.2266 0.1623,3.8733 0.1624,1.6467 0.603,2.8296 0.4639,1.1828 1.2757,1.925 0.8117,0.7422 2.1338,1.1829 1.322,0.4407 3.2006,0.603 1.9019,0.1624 4.4996,0.1624 2.2265,0 3.966,-0.093 1.7627,-0.116 3.0615,-0.4871 1.3221,-0.3711 2.2498,-1.0437 0.9277,-0.6958 1.4844,-1.8786 0.5798,-1.1829 0.8349,-2.8992 0.2784,-1.7395 0.2784,-4.1748 0,-2.3889 -0.2784,-4.0588 -0.2551,-1.6932 -0.8349,-2.8296 -0.5567,-1.1365 -1.4844,-1.7859 -0.9277,-0.6726 -2.2498,-0.9973 -1.2988,-0.3479 -3.0615,-0.4407 -1.7395,-0.093 -3.966,-0.093 -2.2266,0 -3.9893,0.093 -1.7395,0.093 -3.0615,0.4407 -1.2988,0.3247 -2.2266,0.9973 -0.9277,0.6494 -1.5076,1.7859 -0.5566,1.1364 -0.8349,2.8296 -0.2551,1.6699 -0.2551,4.0588 z"
         style="font-family:Michroma;-inkscape-font-specification:Michroma"
         id="path88165" />
      <path
         d="m 1424.3887,1416.7029 h 4.4531 v 35.625 h -4.4531 z"
         style="font-family:Michroma;-inkscape-font-specification:Michroma"
         id="path88167" />
      <path
         d="m 1451.8496,1440.1514 q 2.5977,0 4.4299,0.093 1.8323,0.07 3.0616,0.2783 1.2524,0.1855 1.9714,0.4871 0.719,0.3015 1.0901,0.9045 0.3711,0.5798 0.4639,1.1829 0.1159,0.5798 0.1159,1.3452 0,0.8349 -0.1159,1.5307 -0.093,0.6726 -0.4871,1.2293 -0.3943,0.5566 -1.1597,0.9509 -0.7654,0.3943 -2.0874,0.6726 -1.322,0.2783 -3.2934,0.4175 -1.9483,0.116 -4.7315,0.116 -3.0615,0 -5.0793,-0.1624 -1.9947,-0.1855 -3.1775,-0.6726 -1.1829,-0.4871 -1.6699,-1.3452 -0.4639,-0.8814 -0.4639,-2.273 h -4.4531 q 0,2.1106 0.7422,3.5718 0.7653,1.4612 2.5048,2.3889 1.7395,0.9046 4.5691,1.3221 2.8528,0.4174 7.0276,0.4174 3.3399,0 5.8447,-0.2087 2.5281,-0.1856 4.3372,-0.5798 1.8091,-0.4175 2.992,-1.0669 1.206,-0.6726 1.9018,-1.5772 0.6958,-0.9277 0.9741,-2.1106 0.2783,-1.206 0.2783,-2.7136 0,-1.5076 -0.2783,-2.644 -0.2783,-1.1597 -0.9741,-1.9947 -0.6726,-0.8581 -1.8091,-1.5771 -1.1365,-0.719 -2.876,-1.0669 -1.7395,-0.3479 -4.1284,-0.4871 -2.3657,-0.1391 -5.52,-0.1391 -2.5976,0 -4.4299,0 -1.8323,-0.023 -3.0847,-0.1392 -1.2293,-0.1392 -1.9483,-0.3943 -0.719,-0.2551 -1.0901,-0.7422 -0.3711,-0.487 -0.487,-1.2292 -0.093,-0.7654 -0.093,-1.554 0,-1.3452 0.603,-2.1106 0.6031,-0.7654 1.9947,-1.1364 1.3916,-0.3711 3.6645,-0.4639 2.273,-0.093 5.6128,-0.093 3.0615,0 5.0561,0.1856 2.0179,0.1623 3.2007,0.6262 1.1829,0.4407 1.6468,1.2292 0.487,0.7886 0.487,2.041 h 4.4531 q 0,-2.0178 -0.6726,-3.479 -0.6726,-1.4611 -2.3657,-2.4121 -1.6699,-0.9741 -4.5459,-1.438 -2.8528,-0.4638 -7.2595,-0.4638 -4.4531,0 -7.561,0.3943 -3.1079,0.3942 -5.0562,1.2988 -1.9482,0.8813 -2.8296,2.3193 -0.8813,1.4148 -0.8813,3.5022 0,1.5308 0.2783,2.8528 0.2783,1.2988 0.9509,2.2034 0.6726,0.8813 1.8091,1.4148 1.1597,0.5334 2.876,0.8349 1.7395,0.2784 4.1284,0.3711 2.3889,0.093 5.5432,0.093 z"
         style="font-family:Michroma;-inkscape-font-specification:Michroma"
         id="path88169" />
      <path
         d="m 1492.6699,1428.9954 v 23.3325 h -4.4531 v -23.3325 h -4.4531 v -3.3862 h 4.4531 v -0.232 q 0,-2.7136 0.603,-4.5227 0.6031,-1.8091 1.9947,-2.8991 1.3916,-1.0901 3.6645,-1.5308 2.2961,-0.4639 5.636,-0.4639 h 5.1721 v 3.711 h -5.1953 q -2.1106,0 -3.5254,0.093 -1.4148,0.093 -2.2961,0.6263 -0.8582,0.5334 -1.2293,1.6931 -0.3711,1.1596 -0.3711,3.2934 v 0.232 h 12.6172 v 3.3862 z"
         style="font-family:Michroma;-inkscape-font-specification:Michroma"
         id="path88171" />
      <path
         d="m 1507.5137,1438.783 q 0,-4.1052 0.8813,-6.7957 0.8814,-2.6904 2.8296,-4.2675 1.9483,-1.5772 5.0562,-2.2034 3.1079,-0.6494 7.561,-0.6494 4.4531,0 7.561,0.6494 3.1079,0.6262 5.0562,2.2034 1.9482,1.5771 2.8296,4.2675 0.8813,2.6905 0.8813,6.7957 0,4.1052 -0.8813,6.8188 -0.8814,2.7137 -2.8296,4.314 -1.9483,1.6003 -5.0562,2.273 -3.1079,0.6494 -7.561,0.6494 -4.4531,0 -7.561,-0.6494 -3.1079,-0.6727 -5.0562,-2.273 -1.9482,-1.6003 -2.8296,-4.314 -0.8813,-2.7136 -0.8813,-6.8188 z m 4.4531,0 q 0,2.2266 0.1624,3.8733 0.1623,1.6467 0.603,2.8296 0.4638,1.1828 1.2756,1.925 0.8118,0.7422 2.1338,1.1829 1.322,0.4407 3.2007,0.603 1.9018,0.1624 4.4995,0.1624 2.2266,0 3.9661,-0.093 1.7627,-0.116 3.0615,-0.4871 1.322,-0.3711 2.2497,-1.0437 0.9278,-0.6958 1.4844,-1.8786 0.5798,-1.1829 0.835,-2.8992 0.2783,-1.7395 0.2783,-4.1748 0,-2.3889 -0.2783,-4.0588 -0.2552,-1.6932 -0.835,-2.8296 -0.5566,-1.1365 -1.4844,-1.7859 -0.9277,-0.6726 -2.2497,-0.9973 -1.2988,-0.3479 -3.0615,-0.4407 -1.7395,-0.093 -3.9661,-0.093 -2.2266,0 -3.9893,0.093 -1.7395,0.093 -3.0615,0.4407 -1.2988,0.3247 -2.2265,0.9973 -0.9278,0.6494 -1.5076,1.7859 -0.5567,1.1364 -0.835,2.8296 -0.2551,1.6699 -0.2551,4.0588 z"
         style="font-family:Michroma;-inkscape-font-specification:Michroma"
         id="path88173" />
      <path
         d="m 1568.373,1434.3067 q 0,-1.67 -0.2551,-2.76 -0.2319,-1.1133 -1.1365,-1.7627 -0.9045,-0.6726 -2.6904,-0.9278 -1.7627,-0.2783 -4.8242,-0.2783 -2.9919,0 -4.8706,0.5335 -1.8787,0.5102 -2.9456,1.4611 -1.0669,0.951 -1.4611,2.273 -0.3711,1.322 -0.3711,2.9455 v 16.5369 h -4.4532 v -26.7187 h 4.4532 v 4.2443 q 0.2319,-0.7189 0.8581,-1.5771 0.6262,-0.8813 1.9019,-1.6235 1.2756,-0.7654 3.2934,-1.2757 2.041,-0.5102 5.0794,-0.5102 3.479,0 5.6592,0.6262 2.1801,0.603 3.3862,1.8091 1.2292,1.1828 1.6467,2.9455 0.4407,1.7627 0.4407,4.0589 z"
         style="font-family:Michroma;-inkscape-font-specification:Michroma"
         id="path88175" />
      <path
         d="m 1317.5137,1489.0524 q 0,-2.7832 0.2783,-4.917 0.2783,-2.1338 0.9741,-3.7109 0.719,-1.5772 1.9019,-2.6209 1.206,-1.0669 3.0151,-1.7163 1.8323,-0.6494 4.3372,-0.9277 2.5048,-0.2783 5.8447,-0.2783 4.4531,0 7.3291,0.5566 2.876,0.5334 4.5459,1.6699 1.6699,1.1133 2.3193,2.8528 0.6494,1.7163 0.6494,4.1052 h -4.4531 q 0,-0.8581 -0.046,-1.6003 -0.046,-0.7422 -0.3479,-1.3452 -0.2783,-0.6031 -0.9045,-1.0669 -0.6262,-0.4871 -1.7859,-0.8118 -1.1597,-0.3247 -2.9456,-0.4871 -1.7627,-0.1623 -4.3603,-0.1623 -2.9688,0 -5.0098,0.2087 -2.0178,0.2088 -3.3398,0.6958 -1.322,0.4639 -2.041,1.2757 -0.719,0.7885 -1.0437,1.9482 -0.3247,1.1597 -0.3943,2.7368 -0.046,1.554 -0.046,3.595 0,1.9946 0.046,3.5486 0.07,1.5307 0.3943,2.6904 0.3247,1.1365 1.0437,1.9251 0.719,0.7885 2.041,1.2756 1.322,0.4871 3.3398,0.6958 2.041,0.2087 5.0098,0.2087 2.5976,0 4.3603,-0.1855 1.7859,-0.1856 2.9456,-0.5335 1.1597,-0.3479 1.7859,-0.8581 0.6262,-0.5103 0.9045,-1.1597 0.3015,-0.6726 0.3479,-1.4612 0.046,-0.8117 0.046,-1.7395 h 4.4531 q 0,2.4353 -0.6494,4.2212 -0.6494,1.7859 -2.3193,2.9456 -1.6699,1.1365 -4.5459,1.6931 -2.876,0.5566 -7.3291,0.5566 -3.3399,0 -5.8447,-0.2783 -2.5049,-0.2783 -4.3372,-0.9045 -1.8091,-0.6494 -3.0151,-1.6931 -1.1829,-1.0437 -1.9019,-2.5745 -0.6958,-1.5308 -0.9741,-3.595 -0.2783,-2.0874 -0.2783,-4.7778 z"
         style="font-family:Michroma;-inkscape-font-specification:Michroma"
         id="path88177" />
      <path
         d="m 1353.9041,1488.8205 q 0,-4.1053 0.8813,-6.7957 0.8813,-2.6904 2.8296,-4.2676 1.9482,-1.5771 5.0561,-2.2033 3.108,-0.6495 7.5611,-0.6495 4.4531,0 7.561,0.6495 3.1079,0.6262 5.0562,2.2033 1.9482,1.5772 2.8296,4.2676 0.8813,2.6904 0.8813,6.7957 0,4.1052 -0.8813,6.8188 -0.8814,2.7136 -2.8296,4.314 -1.9483,1.6003 -5.0562,2.2729 -3.1079,0.6494 -7.561,0.6494 -4.4531,0 -7.5611,-0.6494 -3.1079,-0.6726 -5.0561,-2.2729 -1.9483,-1.6004 -2.8296,-4.314 -0.8813,-2.7136 -0.8813,-6.8188 z m 4.4531,0 q 0,2.2265 0.1623,3.8733 0.1624,1.6467 0.6031,2.8295 0.4638,1.1829 1.2756,1.9251 0.8118,0.7422 2.1338,1.1829 1.322,0.4406 3.2007,0.603 1.9018,0.1623 4.4995,0.1623 2.2265,0 3.966,-0.093 1.7627,-0.116 3.0616,-0.4871 1.322,-0.3711 2.2497,-1.0437 0.9278,-0.6958 1.4844,-1.8787 0.5798,-1.1828 0.835,-2.8991 0.2783,-1.7395 0.2783,-4.1748 0,-2.389 -0.2783,-4.0589 -0.2552,-1.6931 -0.835,-2.8296 -0.5566,-1.1364 -1.4844,-1.7859 -0.9277,-0.6726 -2.2497,-0.9973 -1.2989,-0.3479 -3.0616,-0.4406 -1.7395,-0.093 -3.966,-0.093 -2.2266,0 -3.9893,0.093 -1.7395,0.093 -3.0615,0.4406 -1.2988,0.3247 -2.2266,0.9973 -0.9277,0.6495 -1.5075,1.7859 -0.5567,1.1365 -0.835,2.8296 -0.2551,1.6699 -0.2551,4.0589 z"
         style="font-family:Michroma;-inkscape-font-specification:Michroma"
         id="path88179" />
      <path
         d="m 1419.9587,1502.3654 h -4.4531 v -15.0757 q 0,-2.4121 -0.3247,-4.0588 -0.3015,-1.67 -1.2756,-2.6905 -0.951,-1.0205 -2.7136,-1.4611 -1.7396,-0.4639 -4.5923,-0.4639 -3.1311,0 -5.149,0.5334 -2.0178,0.5103 -3.1775,1.4612 -1.1596,0.9278 -1.6235,2.2498 -0.4407,1.322 -0.4407,2.9455 v 16.5601 h -4.4531 v -26.7188 h 4.4531 v 4.2212 q 0.023,-0.07 0.2088,-0.4638 0.1855,-0.3943 0.6494,-0.9278 0.4871,-0.5566 1.2988,-1.1828 0.835,-0.6263 2.1338,-1.1597 1.322,-0.5334 3.1775,-0.8813 1.8555,-0.348 4.4067,-0.348 2.5049,0 4.3372,0.3248 1.8555,0.3015 3.1543,0.9277 1.322,0.603 2.1338,1.5308 0.8349,0.9045 1.322,2.0874 0.3943,-0.6263 1.2293,-1.4612 0.8349,-0.835 2.3193,-1.6004 1.5076,-0.7653 3.7573,-1.2756 2.2498,-0.5335 5.4968,-0.5335 2.6673,0 4.5691,0.3711 1.9251,0.3479 3.2471,1.0669 1.322,0.6958 2.1106,1.7395 0.8118,1.0437 1.2292,2.4353 0.4407,1.3685 0.5799,3.0848 0.1391,1.6931 0.1391,3.6877 v 15.0757 h -4.4531 v -15.0757 q 0,-2.4121 -0.3247,-4.0588 -0.3015,-1.67 -1.2756,-2.6905 -0.951,-1.0205 -2.7136,-1.4611 -1.7396,-0.4639 -4.5923,-0.4639 -3.1311,0 -5.149,0.5334 -2.0178,0.5103 -3.1775,1.4612 -1.1596,0.9278 -1.6235,2.2498 -0.4407,1.322 -0.4407,2.9455 z"
         style="font-family:Michroma;-inkscape-font-specification:Michroma"
         id="path88181" />
      <path
         d="m 1465.9744,1474.9044 q 4.4531,0 7.561,0.6727 3.1079,0.6726 5.0562,2.2961 1.9482,1.6235 2.8295,4.3604 0.8814,2.7136 0.8814,6.8188 0,4.0356 -0.8814,6.7029 -0.8813,2.6672 -2.8295,4.2444 -1.9483,1.5771 -5.0562,2.2265 -3.1079,0.6494 -7.561,0.6494 -3.1775,0 -5.3113,-0.3479 -2.1338,-0.3479 -3.5022,-0.8581 -1.3452,-0.5335 -2.0642,-1.1365 -0.6958,-0.603 -0.9973,-1.1365 v 11.875 h -4.4532 v -35.625 h 4.4532 v 2.4817 q 0.3015,-0.4638 0.9973,-1.0205 0.719,-0.5798 2.0642,-1.0669 1.3684,-0.487 3.5022,-0.8117 2.1338,-0.3248 5.3113,-0.3248 z m 0,3.711 q -2.2266,0 -3.9661,0.116 -1.7395,0.1159 -3.0615,0.487 -1.322,0.3479 -2.2498,1.0437 -0.9045,0.6726 -1.4844,1.8323 -0.5798,1.1365 -0.8581,2.8296 -0.2551,1.6931 -0.2551,4.0588 0,2.3889 0.2551,4.1052 0.2783,1.7164 0.8581,2.876 0.5799,1.1365 1.4844,1.8323 0.9278,0.6726 2.2498,1.0437 1.322,0.3479 3.0615,0.4639 1.7395,0.093 3.9661,0.093 2.5976,0 4.4763,-0.1623 1.9018,-0.1624 3.2239,-0.5799 1.322,-0.4174 2.1337,-1.1596 0.835,-0.7422 1.2757,-1.8787 0.4639,-1.1596 0.603,-2.76 0.1624,-1.6235 0.1624,-3.8037 0,-2.1802 -0.1624,-3.8037 -0.1391,-1.6235 -0.603,-2.7832 -0.4407,-1.1597 -1.2757,-1.9019 -0.8117,-0.7422 -2.1337,-1.1828 -1.3221,-0.4407 -3.2239,-0.6031 -1.8787,-0.1623 -4.4763,-0.1623 z"
         style="font-family:Michroma;-inkscape-font-specification:Michroma"
         id="path88183" />
      <path
         d="m 1488.9822,1466.7404 h 4.4531 v 35.625 h -4.4531 z"
         style="font-family:Michroma;-inkscape-font-specification:Michroma"
         id="path88185" />
      <path
         d="m 1516.4431,1502.8756 q -4.4531,0 -7.561,-0.603 -3.1079,-0.6262 -5.0562,-2.1338 -1.9482,-1.5075 -2.8296,-4.0356 -0.8813,-2.5281 -0.8813,-6.355 0,-4.3835 0.8813,-7.2363 0.8814,-2.876 2.8296,-4.5691 1.9483,-1.6931 5.0562,-2.3657 3.1079,-0.6727 7.561,-0.6727 3.1775,0 5.4968,0.4639 2.3426,0.4639 3.9893,1.3452 1.6699,0.8814 2.6904,2.1338 1.0437,1.2525 1.6236,2.6441 0.603,1.3684 0.8117,3.2238 0.232,1.8555 0.232,3.9197 l -0.3711,1.4844 h -26.3477 q 0,3.0615 0.603,5.033 0.6031,1.9482 1.9947,2.8527 1.3916,0.9046 3.6645,1.1597 2.273,0.2319 5.6128,0.2319 3.0615,0 5.0562,-0.1623 2.0178,-0.1856 3.2007,-0.6726 1.1828,-0.4871 1.6467,-1.3452 0.487,-0.8814 0.487,-2.273 h 4.4532 q 0,2.157 -0.7654,3.6878 -0.7422,1.5075 -2.4817,2.4585 -1.7395,0.9277 -4.5923,1.3452 -2.8296,0.4406 -7.0044,0.4406 z m 0,-24.2602 q -2.2265,0 -3.9892,0.093 -1.7395,0.093 -3.0616,0.4174 -1.2988,0.3016 -2.2265,0.9046 -0.9278,0.5798 -1.5076,1.3916 -0.5566,0.7886 -0.835,2.2497 -0.2551,1.438 -0.2551,3.479 h 22.2656 q 0,-2.7136 -0.5798,-4.2443 -0.5798,-1.554 -1.8323,-2.5513 -1.2524,-0.9973 -3.2238,-1.3684 -1.9715,-0.3711 -4.7547,-0.3711 z"
         style="font-family:Michroma;-inkscape-font-specification:Michroma"
         id="path88187" />
      <path
         d="m 1561.6238,1502.3654 h 5.9375 l -13.6841,-13.6145 13.0347,-13.1043 h -5.9375 l -9.95,10.3211 -10.1819,-10.3211 h -5.9375 l 13.0347,13.1275 -13.6841,13.5913 h 5.9375 l 10.7153,-11.1792 z"
         style="font-family:Michroma;-inkscape-font-specification:Michroma"
         id="path88189" />
      <path
         d="m 1333.8418,1540.2263 q 2.5977,0 4.4299,0.093 1.8323,0.07 3.0616,0.2783 1.2524,0.1856 1.9714,0.4871 0.719,0.3015 1.0901,0.9045 0.3711,0.5799 0.4638,1.1829 0.116,0.5798 0.116,1.3452 0,0.835 -0.116,1.5308 -0.093,0.6726 -0.487,1.2292 -0.3943,0.5567 -1.1597,0.951 -0.7654,0.3942 -2.0874,0.6726 -1.322,0.2783 -3.2934,0.4174 -1.9483,0.116 -4.7315,0.116 -3.0615,0 -5.0793,-0.1623 -1.9947,-0.1856 -3.1775,-0.6726 -1.1829,-0.4871 -1.6699,-1.3453 -0.4639,-0.8813 -0.4639,-2.2729 h -4.4531 q 0,2.1106 0.7421,3.5718 0.7654,1.4611 2.5049,2.3889 1.7395,0.9045 4.5691,1.322 2.8528,0.4175 7.0276,0.4175 3.3399,0 5.8447,-0.2088 2.5281,-0.1855 4.3372,-0.5798 1.8091,-0.4175 2.9919,-1.0669 1.2061,-0.6726 1.9019,-1.5771 0.6958,-0.9278 0.9741,-2.1106 0.2783,-1.2061 0.2783,-2.7137 0,-1.5075 -0.2783,-2.644 -0.2783,-1.1597 -0.9741,-1.9946 -0.6726,-0.8582 -1.8091,-1.5772 -1.1365,-0.719 -2.876,-1.0669 -1.7395,-0.3479 -4.1284,-0.487 -2.3657,-0.1392 -5.52,-0.1392 -2.5977,0 -4.4299,0 -1.8323,-0.023 -3.0848,-0.1391 -1.2292,-0.1392 -1.9482,-0.3943 -0.719,-0.2552 -1.0901,-0.7422 -0.3711,-0.4871 -0.487,-1.2293 -0.093,-0.7654 -0.093,-1.5539 0,-1.3452 0.603,-2.1106 0.603,-0.7654 1.9946,-1.1365 1.3916,-0.3711 3.6646,-0.4639 2.2729,-0.093 5.6128,-0.093 3.0615,0 5.0561,0.1855 2.0179,0.1624 3.2007,0.6262 1.1829,0.4407 1.6467,1.2293 0.4871,0.7886 0.4871,2.041 h 4.4531 q 0,-2.0178 -0.6726,-3.479 -0.6726,-1.4612 -2.3657,-2.4121 -1.6699,-0.9741 -4.5459,-1.438 -2.8528,-0.4639 -7.2595,-0.4639 -4.4531,0 -7.5611,0.3943 -3.1079,0.3943 -5.0561,1.2988 -1.9482,0.8814 -2.8296,2.3194 -0.8813,1.4148 -0.8813,3.5022 0,1.5307 0.2783,2.8528 0.2783,1.2988 0.9509,2.2033 0.6726,0.8814 1.8091,1.4148 1.1597,0.5335 2.876,0.835 1.7395,0.2783 4.1284,0.3711 2.3889,0.093 5.5432,0.093 z"
         style="font-family:Michroma;-inkscape-font-specification:Michroma"
         id="path88191" />
      <path
         d="m 1354.623,1538.8579 q 0,-4.1052 0.8814,-6.7956 0.8813,-2.6904 2.8296,-4.2676 1.9482,-1.5771 5.0561,-2.2034 3.1079,-0.6494 7.5611,-0.6494 4.4531,0 7.561,0.6494 3.1079,0.6263 5.0562,2.2034 1.9482,1.5772 2.8295,4.2676 0.8814,2.6904 0.8814,6.7956 0,4.1053 -0.8814,6.8189 -0.8813,2.7136 -2.8295,4.314 -1.9483,1.6003 -5.0562,2.2729 -3.1079,0.6494 -7.561,0.6494 -4.4532,0 -7.5611,-0.6494 -3.1079,-0.6726 -5.0561,-2.2729 -1.9483,-1.6004 -2.8296,-4.314 -0.8814,-2.7136 -0.8814,-6.8189 z m 4.4532,0 q 0,2.2266 0.1623,3.8733 0.1624,1.6468 0.6031,2.8296 0.4638,1.1829 1.2756,1.9251 0.8118,0.7422 2.1338,1.1828 1.322,0.4407 3.2007,0.6031 1.9018,0.1623 4.4995,0.1623 2.2265,0 3.966,-0.093 1.7627,-0.1159 3.0616,-0.487 1.322,-0.3711 2.2497,-1.0437 0.9278,-0.6958 1.4844,-1.8787 0.5798,-1.1828 0.835,-2.8992 0.2783,-1.7395 0.2783,-4.1748 0,-2.3889 -0.2783,-4.0588 -0.2552,-1.6931 -0.835,-2.8296 -0.5566,-1.1365 -1.4844,-1.7859 -0.9277,-0.6726 -2.2497,-0.9973 -1.2989,-0.3479 -3.0616,-0.4407 -1.7395,-0.093 -3.966,-0.093 -2.2266,0 -3.9893,0.093 -1.7395,0.093 -3.0615,0.4407 -1.2988,0.3247 -2.2266,0.9973 -0.9277,0.6494 -1.5075,1.7859 -0.5567,1.1365 -0.835,2.8296 -0.2551,1.6699 -0.2551,4.0588 z"
         style="font-family:Michroma;-inkscape-font-specification:Michroma"
         id="path88193" />
      <path
         d="m 1401.3809,1529.0703 v 23.3326 h -4.4532 v -23.3326 h -4.4531 v -3.3862 h 4.4531 v -0.2319 q 0,-2.7136 0.6031,-4.5227 0.603,-1.8091 1.9946,-2.8992 1.3916,-1.0901 3.6645,-1.5308 2.2962,-0.4638 5.636,-0.4638 h 5.1721 v 3.7109 h -5.1953 q -2.1106,0 -3.5254,0.093 -1.4148,0.093 -2.2961,0.6262 -0.8582,0.5335 -1.2292,1.6931 -0.3711,1.1597 -0.3711,3.2935 v 0.2319 h 12.6171 v 3.3862 z"
         style="font-family:Michroma;-inkscape-font-specification:Michroma"
         id="path88195" />
      <path
         d="m 1442.9434,1540.5279 q 0,3.4094 -0.5567,5.7055 -0.5566,2.273 -1.8786,3.6414 -1.2989,1.3684 -3.4327,1.9482 -2.1337,0.5799 -5.2649,0.5799 -3.0383,0 -5.1025,-0.4639 -2.0642,-0.4639 -3.3398,-1.5772 -1.2757,-1.1132 -1.8323,-2.9687 -0.5567,-1.8555 -0.5567,-4.6387 v -13.4057 h -5.4968 v -3.6646 h 5.4968 v -7.3059 h 4.4532 v 7.3059 h 16.7688 v 3.6646 h -16.7688 v 13.4057 q 0,2.2266 0.3247,3.4326 0.3479,1.2061 1.0901,1.7627 0.7422,0.5567 1.9482,0.6495 1.2293,0.093 2.992,0.093 1.3916,0 2.4816,-0.046 1.1133,-0.046 1.9251,-0.2783 0.835,-0.2551 1.4148,-0.7422 0.5798,-0.5102 0.9277,-1.4148 0.3711,-0.9045 0.5335,-2.2729 0.1623,-1.3916 0.1623,-3.4094 z"
         style="font-family:Michroma;-inkscape-font-specification:Michroma"
         id="path88197" />
      <path
         d="m 1496.3809,1525.6841 h -5.1954 l -8.2568,23.3789 -8.8135,-23.3789 h -4.4531 l -8.9062,23.3789 -8.1641,-23.3789 h -5.1953 l 10.3906,26.7188 h 5.9375 l 8.1641,-21.8946 8.164,21.8946 h 5.9375 z"
         style="font-family:Michroma;-inkscape-font-specification:Michroma"
         id="path88199" />
      <path
         d="m 1525.9524,1548.7383 q -0.07,0.2783 -1.0437,1.3916 -0.6958,0.835 -1.8555,1.4844 -1.1596,0.6262 -3.1079,0.9741 -1.925,0.3711 -5.0793,0.3711 -4.198,0 -7.1668,-0.4407 -2.9687,-0.4175 -4.8474,-1.2988 -1.8787,-0.9045 -2.76,-2.2961 -0.8582,-1.3916 -0.8582,-3.3167 0,-2.0178 0.4639,-3.4094 0.4871,-1.4148 1.3916,-2.3657 0.9277,-0.951 2.2266,-1.4844 1.2988,-0.5335 2.9455,-0.8118 1.67,-0.2783 3.6414,-0.3479 1.9714,-0.07 4.198,-0.07 3.1775,0 5.3113,0.2784 2.1338,0.2551 3.479,0.6726 1.3684,0.3943 2.0642,0.8581 0.6958,0.4639 0.9973,0.8582 0,-2.5977 -0.2319,-4.43 -0.2088,-1.8322 -0.719,-3.0615 -0.4871,-1.2292 -1.2757,-1.9482 -0.7885,-0.7422 -1.9482,-1.1133 -1.1365,-0.3711 -2.6672,-0.4639 -1.5308,-0.1159 -3.5022,-0.1159 -3.0616,0 -5.0794,0.1623 -2.0178,0.1392 -3.2007,0.5799 -1.1828,0.4406 -1.6699,1.2292 -0.4871,0.7654 -0.4871,2.0178 h -4.4531 q 0,-2.1106 0.7422,-3.5718 0.7654,-1.4611 2.5049,-2.3657 1.7627,-0.9277 4.6155,-1.3452 2.8527,-0.4175 7.0276,-0.4175 4.082,0 6.9116,0.6726 2.8296,0.6726 4.5691,2.3658 1.7627,1.6931 2.528,4.569 0.7886,2.8528 0.7886,7.2364 v 12.6172 h -4.4531 z m -10.3442,0.6958 q 2.9455,0 4.9169,-0.2783 1.9947,-0.2783 3.2007,-0.835 1.2061,-0.5566 1.7163,-1.3916 0.5103,-0.8349 0.5103,-1.9482 0,-1.1133 -0.603,-1.8787 -0.5799,-0.7885 -1.9715,-1.2756 -1.3684,-0.4871 -3.6413,-0.6958 -2.273,-0.2319 -5.6128,-0.2319 -3.3399,0 -5.4041,0.1159 -2.041,0.116 -3.1543,0.5335 -1.1133,0.4175 -1.5075,1.2292 -0.3711,0.8118 -0.3711,2.2034 0,1.3916 0.3943,2.2729 0.4174,0.8582 1.6699,1.3453 1.2524,0.487 3.5949,0.6726 2.3658,0.1623 6.2623,0.1623 z"
         style="font-family:Michroma;-inkscape-font-specification:Michroma"
         id="path88201" />
      <path
         d="m 1559.3508,1534.3816 q 0,-1.6699 -0.2551,-2.76 -0.2319,-1.1133 -1.1365,-1.7627 -0.9045,-0.6726 -2.6904,-0.9277 -1.7627,-0.2783 -4.8242,-0.2783 -2.992,0 -4.8706,0.5334 -1.8787,0.5103 -2.9456,1.4612 -1.0669,0.9509 -1.4612,2.2729 -0.3711,1.3221 -0.3711,2.9456 v 16.5369 h -4.4531 v -26.7188 h 4.4531 v 4.2444 q 0.232,-0.719 0.8582,-1.5772 0.6262,-0.8813 1.9019,-1.6235 1.2756,-0.7654 3.2934,-1.2756 2.041,-0.5103 5.0794,-0.5103 3.479,0 5.6591,0.6262 2.1802,0.6031 3.3863,1.8091 1.2292,1.1829 1.6467,2.9456 0.4407,1.7627 0.4407,4.0588 z"
         style="font-family:Michroma;-inkscape-font-specification:Michroma"
         id="path88203" />
      <path
         d="m 1581.6165,1552.9131 q -4.4532,0 -7.5611,-0.603 -3.1079,-0.6262 -5.0561,-2.1338 -1.9483,-1.5076 -2.8296,-4.0356 -0.8814,-2.5281 -0.8814,-6.355 0,-4.3836 0.8814,-7.2364 0.8813,-2.8759 2.8296,-4.569 1.9482,-1.6932 5.0561,-2.3658 3.1079,-0.6726 7.5611,-0.6726 3.1774,0 5.4968,0.4639 2.3425,0.4639 3.9892,1.3452 1.67,0.8814 2.6905,2.1338 1.0437,1.2524 1.6235,2.644 0.603,1.3684 0.8118,3.2239 0.2319,1.8555 0.2319,3.9197 l -0.3711,1.4844 h -26.3476 q 0,3.0615 0.603,5.0329 0.603,1.9483 1.9946,2.8528 1.3916,0.9046 3.6646,1.1597 2.2729,0.2319 5.6128,0.2319 3.0615,0 5.0561,-0.1623 2.0178,-0.1856 3.2007,-0.6726 1.1829,-0.4871 1.6467,-1.3453 0.4871,-0.8813 0.4871,-2.2729 h 4.4531 q 0,2.157 -0.7654,3.6877 -0.7422,1.5076 -2.4817,2.4585 -1.7395,0.9278 -4.5923,1.3452 -2.8295,0.4407 -7.0043,0.4407 z m 0,-24.2602 q -2.2266,0 -3.9893,0.093 -1.7395,0.093 -3.0615,0.4175 -1.2989,0.3015 -2.2266,0.9046 -0.9277,0.5798 -1.5076,1.3916 -0.5566,0.7885 -0.8349,2.2497 -0.2551,1.438 -0.2551,3.479 h 22.2656 q 0,-2.7136 -0.5799,-4.2444 -0.5798,-1.5539 -1.8322,-2.5512 -1.2525,-0.9973 -3.2239,-1.3684 -1.9714,-0.3711 -4.7546,-0.3711 z"
         style="font-family:Michroma;-inkscape-font-specification:Michroma"
         id="path88205" />
      <path
         d="m 1333.8418,1602.9506 q -4.4531,0 -7.561,-0.603 -3.1079,-0.6263 -5.0562,-2.1338 -1.9482,-1.5076 -2.8296,-4.0357 -0.8813,-2.528 -0.8813,-6.3549 0,-4.3836 0.8813,-7.2364 0.8814,-2.876 2.8296,-4.5691 1.9483,-1.6931 5.0562,-2.3657 3.1079,-0.6726 7.561,-0.6726 3.1775,0 5.4968,0.4639 2.3426,0.4638 3.9893,1.3452 1.6699,0.8813 2.6904,2.1338 1.0437,1.2524 1.6235,2.644 0.6031,1.3684 0.8118,3.2239 0.2319,1.8555 0.2319,3.9197 l -0.371,1.4843 h -26.3477 q 0,3.0616 0.603,5.033 0.6031,1.9482 1.9947,2.8528 1.3916,0.9045 3.6645,1.1597 2.273,0.2319 5.6128,0.2319 3.0615,0 5.0561,-0.1624 2.0179,-0.1855 3.2007,-0.6726 1.1829,-0.487 1.6468,-1.3452 0.487,-0.8813 0.487,-2.2729 h 4.4531 q 0,2.1569 -0.7653,3.6877 -0.7422,1.5076 -2.4817,2.4585 -1.7395,0.9277 -4.5923,1.3452 -2.8296,0.4407 -7.0044,0.4407 z m 0,-24.2603 q -2.2266,0 -3.9893,0.093 -1.7395,0.093 -3.0615,0.4175 -1.2988,0.3015 -2.2265,0.9045 -0.9278,0.5799 -1.5076,1.3916 -0.5567,0.7886 -0.835,2.2498 -0.2551,1.438 -0.2551,3.479 h 22.2656 q 0,-2.7136 -0.5798,-4.2444 -0.5798,-1.5539 -1.8323,-2.5513 -1.2524,-0.9973 -3.2239,-1.3684 -1.9714,-0.3711 -4.7546,-0.3711 z"
         style="font-family:Michroma;-inkscape-font-specification:Michroma"
         id="path88207" />
      <path
         d="m 1353.8809,1589.1274 q 0,-2.7833 0.2783,-4.917 0.2783,-2.1338 0.9741,-3.711 0.719,-1.5771 1.9019,-2.6208 1.206,-1.0669 3.0151,-1.7163 1.8323,-0.6495 4.3372,-0.9278 2.5048,-0.2783 5.8447,-0.2783 4.4531,0 7.3291,0.5566 2.876,0.5335 4.5459,1.67 1.6699,1.1133 2.3193,2.8528 0.6494,1.7163 0.6494,4.1052 h -4.4531 q 0,-0.8582 -0.046,-1.6004 -0.046,-0.7422 -0.3479,-1.3452 -0.2783,-0.603 -0.9045,-1.0669 -0.6262,-0.487 -1.7859,-0.8117 -1.1597,-0.3247 -2.9456,-0.4871 -1.7627,-0.1624 -4.3603,-0.1624 -2.9688,0 -5.0098,0.2088 -2.0178,0.2087 -3.3398,0.6958 -1.3221,0.4639 -2.041,1.2756 -0.719,0.7886 -1.0437,1.9483 -0.3248,1.1596 -0.3943,2.7368 -0.046,1.5539 -0.046,3.595 0,1.9946 0.046,3.5485 0.069,1.5308 0.3943,2.6905 0.3247,1.1364 1.0437,1.925 0.7189,0.7886 2.041,1.2756 1.322,0.4871 3.3398,0.6958 2.041,0.2088 5.0098,0.2088 2.5976,0 4.3603,-0.1856 1.7859,-0.1855 2.9456,-0.5334 1.1597,-0.3479 1.7859,-0.8582 0.6262,-0.5102 0.9045,-1.1596 0.3015,-0.6726 0.3479,-1.4612 0.046,-0.8118 0.046,-1.7395 h 4.4531 q 0,2.4353 -0.6494,4.2212 -0.6494,1.7859 -2.3193,2.9455 -1.6699,1.1365 -4.5459,1.6932 -2.876,0.5566 -7.3291,0.5566 -3.3399,0 -5.8447,-0.2783 -2.5049,-0.2783 -4.3372,-0.9046 -1.8091,-0.6494 -3.0151,-1.6931 -1.1829,-1.0437 -1.9019,-2.5744 -0.6958,-1.5308 -0.9741,-3.595 -0.2783,-2.0874 -0.2783,-4.7778 z"
         style="font-family:Michroma;-inkscape-font-specification:Michroma"
         id="path88209" />
      <path
         d="m 1390.2712,1588.8954 q 0,-4.1052 0.8814,-6.7956 0.8813,-2.6905 2.8296,-4.2676 1.9482,-1.5772 5.0561,-2.2034 3.1079,-0.6494 7.5611,-0.6494 4.4531,0 7.561,0.6494 3.1079,0.6262 5.0562,2.2034 1.9482,1.5771 2.8295,4.2676 0.8814,2.6904 0.8814,6.7956 0,4.1052 -0.8814,6.8189 -0.8813,2.7136 -2.8295,4.3139 -1.9483,1.6004 -5.0562,2.273 -3.1079,0.6494 -7.561,0.6494 -4.4532,0 -7.5611,-0.6494 -3.1079,-0.6726 -5.0561,-2.273 -1.9483,-1.6003 -2.8296,-4.3139 -0.8814,-2.7137 -0.8814,-6.8189 z m 4.4532,0 q 0,2.2266 0.1623,3.8733 0.1624,1.6467 0.603,2.8296 0.4639,1.1829 1.2757,1.925 0.8117,0.7422 2.1338,1.1829 1.322,0.4407 3.2007,0.603 1.9018,0.1624 4.4995,0.1624 2.2265,0 3.966,-0.093 1.7627,-0.116 3.0616,-0.487 1.322,-0.3711 2.2497,-1.0437 0.9277,-0.6958 1.4844,-1.8787 0.5798,-1.1829 0.8349,-2.8992 0.2784,-1.7395 0.2784,-4.1748 0,-2.3889 -0.2784,-4.0588 -0.2551,-1.6931 -0.8349,-2.8296 -0.5567,-1.1365 -1.4844,-1.7859 -0.9277,-0.6726 -2.2497,-0.9973 -1.2989,-0.3479 -3.0616,-0.4407 -1.7395,-0.093 -3.966,-0.093 -2.2266,0 -3.9893,0.093 -1.7395,0.093 -3.0615,0.4407 -1.2988,0.3247 -2.2266,0.9973 -0.9277,0.6494 -1.5075,1.7859 -0.5567,1.1365 -0.835,2.8296 -0.2551,1.6699 -0.2551,4.0588 z"
         style="font-family:Michroma;-inkscape-font-specification:Michroma"
         id="path88211" />
      <path
         d="m 1443.7087,1590.2638 q 2.5977,0 4.43,0.093 1.8322,0.07 3.0615,0.2783 1.2524,0.1856 1.9714,0.4871 0.719,0.3015 1.0901,0.9045 0.3711,0.5799 0.4639,1.1829 0.116,0.5798 0.116,1.3452 0,0.835 -0.116,1.5308 -0.093,0.6726 -0.4871,1.2292 -0.3943,0.5566 -1.1596,0.9509 -0.7654,0.3943 -2.0874,0.6726 -1.3221,0.2784 -3.2935,0.4175 -1.9482,0.116 -4.7314,0.116 -3.0616,0 -5.0794,-0.1624 -1.9946,-0.1855 -3.1775,-0.6726 -1.1828,-0.487 -1.6699,-1.3452 -0.4639,-0.8813 -0.4639,-2.2729 h -4.4531 q 0,2.1106 0.7422,3.5717 0.7654,1.4612 2.5049,2.389 1.7395,0.9045 4.5691,1.322 2.8527,0.4175 7.0276,0.4175 3.3398,0 5.8447,-0.2088 2.5281,-0.1855 4.3371,-0.5798 1.8091,-0.4175 2.992,-1.0669 1.206,-0.6726 1.9018,-1.5772 0.6958,-0.9277 0.9742,-2.1106 0.2783,-1.206 0.2783,-2.7136 0,-1.5075 -0.2783,-2.644 -0.2784,-1.1597 -0.9742,-1.9946 -0.6726,-0.8582 -1.809,-1.5772 -1.1365,-0.719 -2.876,-1.0669 -1.7395,-0.3479 -4.1284,-0.4871 -2.3658,-0.1391 -5.5201,-0.1391 -2.5976,0 -4.4299,0 -1.8323,-0.023 -3.0847,-0.1392 -1.2293,-0.1391 -1.9483,-0.3943 -0.7189,-0.2551 -1.09,-0.7421 -0.3711,-0.4871 -0.4871,-1.2293 -0.093,-0.7654 -0.093,-1.554 0,-1.3452 0.6031,-2.1105 0.603,-0.7654 1.9946,-1.1365 1.3916,-0.3711 3.6645,-0.4639 2.273,-0.093 5.6128,-0.093 3.0616,0 5.0562,0.1856 2.0178,0.1623 3.2007,0.6262 1.1828,0.4407 1.6467,1.2293 0.4871,0.7885 0.4871,2.041 h 4.4531 q 0,-2.0179 -0.6726,-3.479 -0.6726,-1.4612 -2.3658,-2.4121 -1.6699,-0.9742 -4.5459,-1.438 -2.8527,-0.4639 -7.2595,-0.4639 -4.4531,0 -7.561,0.3943 -3.1079,0.3943 -5.0562,1.2988 -1.9482,0.8814 -2.8295,2.3194 -0.8814,1.4147 -0.8814,3.5021 0,1.5308 0.2783,2.8528 0.2783,1.2989 0.951,2.2034 0.6726,0.8813 1.809,1.4148 1.1597,0.5334 2.876,0.835 1.7395,0.2783 4.1284,0.3711 2.3889,0.093 5.5432,0.093 z"
         style="font-family:Michroma;-inkscape-font-specification:Michroma"
         id="path88213" />
      <path
         d="m 1477.8494,1602.4403 h 1.4843 q -0.3711,0.7422 -0.6726,1.4148 -0.2783,0.6726 -0.6958,1.2525 -0.4174,0.5798 -1.0437,1.0437 -0.6262,0.4638 -1.6699,0.7886 -1.0205,0.3479 -2.5513,0.5102 -1.5307,0.1856 -3.7573,0.1856 v 3.7109 q 2.5977,0 4.4995,-0.2551 1.9019,-0.232 3.2703,-0.6958 1.3916,-0.4407 2.3425,-1.0901 0.9509,-0.6494 1.6467,-1.4844 0.6958,-0.8118 1.2293,-1.8091 0.5566,-0.9741 1.1133,-2.0874 l 0.7422,-1.4844 13.3593,-26.7187 h -5.1953 l -11.1328,23.75 -11.875,-23.75 h -5.1953 z"
         style="font-family:Michroma;-inkscape-font-specification:Michroma"
         id="path88215" />
      <path
         d="m 1517.1853,1590.2638 q 2.5977,0 4.4299,0.093 1.8323,0.07 3.0616,0.2783 1.2524,0.1856 1.9714,0.4871 0.719,0.3015 1.0901,0.9045 0.3711,0.5799 0.4638,1.1829 0.116,0.5798 0.116,1.3452 0,0.835 -0.116,1.5308 -0.093,0.6726 -0.487,1.2292 -0.3943,0.5566 -1.1597,0.9509 -0.7654,0.3943 -2.0874,0.6726 -1.322,0.2784 -3.2934,0.4175 -1.9483,0.116 -4.7315,0.116 -3.0615,0 -5.0793,-0.1624 -1.9947,-0.1855 -3.1775,-0.6726 -1.1829,-0.487 -1.6699,-1.3452 -0.4639,-0.8813 -0.4639,-2.2729 h -4.4531 q 0,2.1106 0.7422,3.5717 0.7653,1.4612 2.5048,2.389 1.7395,0.9045 4.5691,1.322 2.8528,0.4175 7.0276,0.4175 3.3399,0 5.8447,-0.2088 2.5281,-0.1855 4.3372,-0.5798 1.8091,-0.4175 2.9919,-1.0669 1.2061,-0.6726 1.9019,-1.5772 0.6958,-0.9277 0.9741,-2.1106 0.2783,-1.206 0.2783,-2.7136 0,-1.5075 -0.2783,-2.644 -0.2783,-1.1597 -0.9741,-1.9946 -0.6726,-0.8582 -1.8091,-1.5772 -1.1365,-0.719 -2.876,-1.0669 -1.7395,-0.3479 -4.1284,-0.4871 -2.3657,-0.1391 -5.52,-0.1391 -2.5977,0 -4.4299,0 -1.8323,-0.023 -3.0847,-0.1392 -1.2293,-0.1391 -1.9483,-0.3943 -0.719,-0.2551 -1.0901,-0.7421 -0.3711,-0.4871 -0.487,-1.2293 -0.093,-0.7654 -0.093,-1.554 0,-1.3452 0.603,-2.1105 0.603,-0.7654 1.9946,-1.1365 1.3916,-0.3711 3.6646,-0.4639 2.2729,-0.093 5.6128,-0.093 3.0615,0 5.0561,0.1856 2.0179,0.1623 3.2007,0.6262 1.1829,0.4407 1.6468,1.2293 0.487,0.7885 0.487,2.041 h 4.4531 q 0,-2.0179 -0.6726,-3.479 -0.6726,-1.4612 -2.3657,-2.4121 -1.6699,-0.9742 -4.5459,-1.438 -2.8528,-0.4639 -7.2595,-0.4639 -4.4531,0 -7.561,0.3943 -3.108,0.3943 -5.0562,1.2988 -1.9482,0.8814 -2.8296,2.3194 -0.8813,1.4147 -0.8813,3.5021 0,1.5308 0.2783,2.8528 0.2783,1.2989 0.9509,2.2034 0.6726,0.8813 1.8091,1.4148 1.1597,0.5334 2.876,0.835 1.7395,0.2783 4.1284,0.3711 2.3889,0.093 5.5432,0.093 z"
         style="font-family:Michroma;-inkscape-font-specification:Michroma"
         id="path88217" />
      <path
         d="m 1564.6853,1590.5653 q 0,3.4095 -0.5566,5.7056 -0.5567,2.273 -1.8787,3.6414 -1.2988,1.3684 -3.4326,1.9482 -2.1338,0.5798 -5.2649,0.5798 -3.0383,0 -5.1025,-0.4638 -2.0643,-0.4639 -3.3399,-1.5772 -1.2756,-1.1133 -1.8323,-2.9687 -0.5566,-1.8555 -0.5566,-4.6387 v -13.4058 h -5.4968 v -3.6645 h 5.4968 v -7.3059 h 4.4531 v 7.3059 h 16.7688 v 3.6645 h -16.7688 v 13.4058 q 0,2.2266 0.3247,3.4326 0.3479,1.2061 1.0901,1.7627 0.7422,0.5567 1.9483,0.6494 1.2292,0.093 2.9919,0.093 1.3916,0 2.4817,-0.046 1.1133,-0.046 1.925,-0.2783 0.835,-0.2551 1.4148,-0.7422 0.5799,-0.5102 0.9278,-1.4148 0.3711,-0.9045 0.5334,-2.2729 0.1624,-1.3916 0.1624,-3.4095 z"
         style="font-family:Michroma;-inkscape-font-specification:Michroma"
         id="path88219" />
      <path
         d="m 1584.7244,1602.9506 q -4.4532,0 -7.5611,-0.603 -3.1079,-0.6263 -5.0561,-2.1338 -1.9483,-1.5076 -2.8296,-4.0357 -0.8814,-2.528 -0.8814,-6.3549 0,-4.3836 0.8814,-7.2364 0.8813,-2.876 2.8296,-4.5691 1.9482,-1.6931 5.0561,-2.3657 3.1079,-0.6726 7.5611,-0.6726 3.1775,0 5.4968,0.4639 2.3425,0.4638 3.9892,1.3452 1.67,0.8813 2.6905,2.1338 1.0437,1.2524 1.6235,2.644 0.603,1.3684 0.8118,3.2239 0.2319,1.8555 0.2319,3.9197 l -0.3711,1.4843 h -26.3476 q 0,3.0616 0.603,5.033 0.603,1.9482 1.9946,2.8528 1.3916,0.9045 3.6646,1.1597 2.2729,0.2319 5.6128,0.2319 3.0615,0 5.0561,-0.1624 2.0178,-0.1855 3.2007,-0.6726 1.1829,-0.487 1.6467,-1.3452 0.4871,-0.8813 0.4871,-2.2729 h 4.4531 q 0,2.1569 -0.7654,3.6877 -0.7422,1.5076 -2.4817,2.4585 -1.7395,0.9277 -4.5922,1.3452 -2.8296,0.4407 -7.0044,0.4407 z m 0,-24.2603 q -2.2266,0 -3.9893,0.093 -1.7395,0.093 -3.0615,0.4175 -1.2988,0.3015 -2.2266,0.9045 -0.9277,0.5799 -1.5075,1.3916 -0.5567,0.7886 -0.835,2.2498 -0.2551,1.438 -0.2551,3.479 h 22.2656 q 0,-2.7136 -0.5798,-4.2444 -0.5799,-1.5539 -1.8323,-2.5513 -1.2525,-0.9973 -3.2239,-1.3684 -1.9714,-0.3711 -4.7546,-0.3711 z"
         style="font-family:Michroma;-inkscape-font-specification:Michroma"
         id="path88221" />
      <path
         d="m 1633.7087,1602.4403 h -4.4531 v -15.0756 q 0,-2.4122 -0.3247,-4.0589 -0.3015,-1.6699 -1.2756,-2.6904 -0.951,-1.0205 -2.7136,-1.4612 -1.7396,-0.4639 -4.5923,-0.4639 -3.1311,0 -5.149,0.5335 -2.0178,0.5102 -3.1775,1.4612 -1.1596,0.9277 -1.6235,2.2497 -0.4407,1.322 -0.4407,2.9456 v 16.56 h -4.4531 v -26.7187 h 4.4531 v 4.2212 q 0.023,-0.07 0.2088,-0.4639 0.1855,-0.3943 0.6494,-0.9277 0.4871,-0.5567 1.2988,-1.1829 0.835,-0.6262 2.1338,-1.1597 1.322,-0.5334 3.1775,-0.8813 1.8555,-0.3479 4.4067,-0.3479 2.5049,0 4.3372,0.3247 1.8555,0.3015 3.1543,0.9277 1.322,0.6031 2.1338,1.5308 0.8349,0.9045 1.322,2.0874 0.3943,-0.6262 1.2293,-1.4612 0.8349,-0.8349 2.3193,-1.6003 1.5076,-0.7654 3.7573,-1.2757 2.2498,-0.5334 5.4968,-0.5334 2.6673,0 4.5691,0.3711 1.9251,0.3479 3.2471,1.0669 1.322,0.6958 2.1106,1.7395 0.8118,1.0437 1.2292,2.4353 0.4407,1.3684 0.5799,3.0847 0.1391,1.6931 0.1391,3.6878 v 15.0756 h -4.4531 v -15.0756 q 0,-2.4122 -0.3247,-4.0589 -0.3015,-1.6699 -1.2756,-2.6904 -0.951,-1.0205 -2.7136,-1.4612 -1.7396,-0.4639 -4.5923,-0.4639 -3.1311,0 -5.149,0.5335 -2.0178,0.5102 -3.1775,1.4612 -1.1596,0.9277 -1.6235,2.2497 -0.4407,1.322 -0.4407,2.9456 z"
         style="font-family:Michroma;-inkscape-font-specification:Michroma"
         id="path88223" />
      <path
         d="m 1678.9822,1590.2638 q 2.5976,0 4.4299,0.093 1.8323,0.07 3.0615,0.2783 1.2525,0.1856 1.9715,0.4871 0.719,0.3015 1.0901,0.9045 0.3711,0.5799 0.4638,1.1829 0.116,0.5798 0.116,1.3452 0,0.835 -0.116,1.5308 -0.093,0.6726 -0.487,1.2292 -0.3943,0.5566 -1.1597,0.9509 -0.7654,0.3943 -2.0874,0.6726 -1.322,0.2784 -3.2935,0.4175 -1.9482,0.116 -4.7314,0.116 -3.0615,0 -5.0794,-0.1624 -1.9946,-0.1855 -3.1774,-0.6726 -1.1829,-0.487 -1.67,-1.3452 -0.4638,-0.8813 -0.4638,-2.2729 h -4.4532 q 0,2.1106 0.7422,3.5717 0.7654,1.4612 2.5049,2.389 1.7395,0.9045 4.5691,1.322 2.8528,0.4175 7.0276,0.4175 3.3398,0 5.8447,-0.2088 2.5281,-0.1855 4.3372,-0.5798 1.8091,-0.4175 2.9919,-1.0669 1.2061,-0.6726 1.9019,-1.5772 0.6958,-0.9277 0.9741,-2.1106 0.2783,-1.206 0.2783,-2.7136 0,-1.5075 -0.2783,-2.644 -0.2783,-1.1597 -0.9741,-1.9946 -0.6726,-0.8582 -1.8091,-1.5772 -1.1365,-0.719 -2.876,-1.0669 -1.7395,-0.3479 -4.1284,-0.4871 -2.3657,-0.1391 -5.52,-0.1391 -2.5977,0 -4.43,0 -1.8322,-0.023 -3.0847,-0.1392 -1.2292,-0.1391 -1.9482,-0.3943 -0.719,-0.2551 -1.0901,-0.7421 -0.3711,-0.4871 -0.4871,-1.2293 -0.093,-0.7654 -0.093,-1.554 0,-1.3452 0.603,-2.1105 0.603,-0.7654 1.9946,-1.1365 1.3916,-0.3711 3.6646,-0.4639 2.2729,-0.093 5.6128,-0.093 3.0615,0 5.0561,0.1856 2.0178,0.1623 3.2007,0.6262 1.1829,0.4407 1.6467,1.2293 0.4871,0.7885 0.4871,2.041 h 4.4531 q 0,-2.0179 -0.6726,-3.479 -0.6726,-1.4612 -2.3657,-2.4121 -1.6699,-0.9742 -4.5459,-1.438 -2.8528,-0.4639 -7.2595,-0.4639 -4.4532,0 -7.5611,0.3943 -3.1079,0.3943 -5.0561,1.2988 -1.9483,0.8814 -2.8296,2.3194 -0.8814,1.4147 -0.8814,3.5021 0,1.5308 0.2784,2.8528 0.2783,1.2989 0.9509,2.2034 0.6726,0.8813 1.8091,1.4148 1.1596,0.5334 2.8759,0.835 1.7395,0.2783 4.1285,0.3711 2.3889,0.093 5.5432,0.093 z"
         style="font-family:Michroma;-inkscape-font-specification:Michroma"
         id="path88225" />
    </g>
  </g>
</svg>
