<?xml version="1.0" encoding="iso-8859-1"?>
<!-- Generator: Adobe Illustrator 19.0.0, SVG Export Plug-In . SVG Version: 6.00 Build 0)  -->
<svg version="1.1" id="Layer_1" xmlns="http://www.w3.org/2000/svg" xmlns:xlink="http://www.w3.org/1999/xlink" x="0px" y="0px"
	 viewBox="0 0 512.001 512.001" style="enable-background:new 0 0 512.001 512.001;" xml:space="preserve">
<path style="fill:#D6E5F6;" d="M336.129,173.051L199.272,36.199c-3.851-3.85-9.071-6.014-14.515-6.014H20.529
	C9.191,30.186,0,39.379,0,50.714v410.571c0,11.339,9.191,20.529,20.529,20.529h301.085c11.337,0,20.529-9.19,20.529-20.529V187.567
	C342.143,182.122,339.98,176.902,336.129,173.051z"/>
<path style="fill:#A4C6EC;" d="M336.129,173.051L199.272,36.199c-3.851-3.85-9.071-6.014-14.515-6.014h-20.529v451.628h157.386
	c11.337,0,20.529-9.19,20.529-20.529V187.567C342.143,182.122,339.98,176.902,336.129,173.051z"/>
<path style="fill:#385C8E;" d="M336.128,171.682L200.639,36.199c-5.87-5.871-14.701-7.626-22.371-4.449
	c-7.671,3.176-12.673,10.663-12.673,18.964v135.483c0,11.337,9.19,20.529,20.529,20.529h135.488c8.302,0,15.786-5.001,18.964-12.673
	C343.758,186.384,342,177.554,336.128,171.682z"/>
<g>
	<path style="fill:#1D3366;" d="M239.5,344.958H102.643c-11.337,0-20.529,9.193-20.529,20.529c0,11.339,9.191,20.529,20.529,20.529
		H239.5c11.337,0,20.529-9.19,20.529-20.529C260.028,354.15,250.837,344.958,239.5,344.958z"/>
	<path style="fill:#1D3366;" d="M102.643,303.901H239.5c11.337,0,20.529-9.19,20.529-20.529c0-11.336-9.191-20.529-20.529-20.529
		H102.643c-11.337,0-20.529,9.193-20.529,20.529C82.114,294.711,91.306,303.901,102.643,303.901z"/>
</g>
<path style="fill:#F6E27D;" d="M505.988,36.199c-3.85-3.85-9.071-6.014-14.516-6.014h-87.743c-5.446,0-10.667,2.164-14.516,6.014
	c-3.85,3.851-6.012,9.072-6.012,14.516l0.003,366.703c0,5.444,2.162,10.664,6.014,14.514l43.87,43.871
	c4.009,4.01,9.262,6.012,14.515,6.012c5.253,0,10.508-2.002,14.515-6.012l43.87-43.871c3.85-3.851,6.014-9.071,6.014-14.514
	l0.003-366.703C512,45.272,509.838,40.051,505.988,36.199z"/>
<path style="fill:#F2D23D;" d="M505.988,36.199c-3.85-3.85-9.071-6.014-14.516-6.014h-43.872v451.628
	c5.254,0,10.508-2.002,14.515-6.012l43.87-43.871c3.85-3.851,6.014-9.071,6.014-14.514L512,50.714
	C512,45.272,509.838,40.051,505.988,36.199z"/>
<g>
</g>
<g>
</g>
<g>
</g>
<g>
</g>
<g>
</g>
<g>
</g>
<g>
</g>
<g>
</g>
<g>
</g>
<g>
</g>
<g>
</g>
<g>
</g>
<g>
</g>
<g>
</g>
<g>
</g>
</svg>
