<?xml version="1.0" encoding="iso-8859-1"?>
<!-- Generator: Adobe Illustrator 19.0.0, SVG Export Plug-In . SVG Version: 6.00 Build 0)  -->
<svg version="1.1" id="Layer_1" xmlns="http://www.w3.org/2000/svg" xmlns:xlink="http://www.w3.org/1999/xlink" x="0px" y="0px"
	 viewBox="0 0 295.239 295.239" style="enable-background:new 0 0 295.239 295.239;" xml:space="preserve">
<g>
	<g>
		<polygon style="fill:#F9BA48;" points="204.762,0.001 42.857,0.001 42.857,295.239 252.381,295.239 252.381,52.382 		"/>
		<polygon style="fill:#333333;" points="252.381,52.382 204.762,52.382 204.762,0.001 195.238,0.001 195.238,61.906 
			252.381,61.906 		"/>
		<path style="fill:#333333;" d="M271.429,100.001h-9.524H108.081l-35.714,23.81l35.714,23.81h153.824h9.524
			c13.129,0,23.81-10.681,23.81-23.81S284.557,100.001,271.429,100.001z M104.762,113.658v20.3l-15.224-10.147L104.762,113.658z
			 M261.905,138.096H114.286v-9.524h133.333v-9.524H114.286v-9.524h147.619V138.096z M271.429,138.096v-28.571
			c7.876,0,14.286,6.41,14.286,14.286S279.305,138.096,271.429,138.096z"/>
		<path style="fill:#333333;" d="M0,247.62h228.571v-66.667H0V247.62z M9.524,190.477h9.524v14.286h9.524v-14.286h9.524v14.286
			h9.524v-14.286h9.524v23.81h9.524v-23.81h9.524v14.286h9.524v-14.286h9.524v14.286h9.524v-14.286h9.524v23.81h9.524v-23.81h9.524
			v14.286h9.524v-14.286h9.524v14.286h9.524v-14.286h9.524v23.81h9.524v-23.81h38.095v23.81v23.81H9.524V190.477z"/>
		<path style="fill:#333333;" d="M204.762,200.001c-7.876,0-14.286,6.41-14.286,14.286c0,7.876,6.41,14.286,14.286,14.286
			s14.286-6.41,14.286-14.286C219.048,206.411,212.638,200.001,204.762,200.001z M204.762,219.049c-2.624,0-4.762-2.133-4.762-4.762
			s2.138-4.762,4.762-4.762s4.762,2.133,4.762,4.762C209.524,216.915,207.386,219.049,204.762,219.049z"/>
		<rect x="66.667" y="23.811" style="fill:#333333;" width="114.286" height="9.524"/>
		<rect x="66.667" y="47.62" style="fill:#333333;" width="114.286" height="9.524"/>
		<rect x="66.667" y="71.43" style="fill:#333333;" width="114.286" height="9.524"/>
	</g>
</g>
<g>
</g>
<g>
</g>
<g>
</g>
<g>
</g>
<g>
</g>
<g>
</g>
<g>
</g>
<g>
</g>
<g>
</g>
<g>
</g>
<g>
</g>
<g>
</g>
<g>
</g>
<g>
</g>
<g>
</g>
</svg>
